<?xml version="1.0" encoding="utf-8"?>
<!-- Generator: Adobe Illustrator 19.2.0, SVG Export Plug-In . SVG Version: 6.00 Build 0)  -->
<svg version="1.1" id="Layer_1" xmlns="http://www.w3.org/2000/svg" xmlns:xlink="http://www.w3.org/1999/xlink" x="0px" y="0px"
	 viewBox="0 0 566.9 566.9" style="enable-background:new 0 0 566.9 566.9;" xml:space="preserve">
<style type="text/css">
	.st0{fill:#FFFFFF;}
	.st1{fill:url(#SVGID_1_);}
	.st2{fill:url(#SVGID_2_);}
	.st3{fill:url(#SVGID_3_);}
	.st4{fill:#F6CB1A;}
	.st5{opacity:0.57;fill:url(#SVGID_4_);enable-background:new    ;}
</style>
<circle class="st0" cx="283.6" cy="282.5" r="283.5"/>
<g>
	<g>
		
			<linearGradient id="SVGID_1_" gradientUnits="userSpaceOnUse" x1="132.1458" y1="283.4176" x2="529.343" y2="283.4176" gradientTransform="matrix(1 0 0 -1 0 565.91)">
			<stop  offset="0" style="stop-color:#FFCC63"/>
			<stop  offset="1" style="stop-color:#F7941E"/>
		</linearGradient>
		<path class="st1" d="M487.6,323.7c1.9-10.8,12.1-17.9,22.9-16.1s17.9,12.1,16.1,22.9c-1.9,10.8-12.1,17.9-22.9,16.1
			C493,344.6,485.7,334.4,487.6,323.7z M513.2,289.1c9.8-0.9,17-9.5,16.1-19.3c-0.9-9.8-9.5-17-19.3-16.1c-9.8,0.9-17,9.5-16.1,19.3
			C494.7,282.9,503.4,290,513.2,289.1z M507.1,231.6c8.3-3,12.5-12.2,9.5-20.5s-12.2-12.5-20.5-9.5c-8.3,3-12.5,12.2-9.5,20.5
			C489.6,230.4,498.8,234.6,507.1,231.6z M486.4,178.3c6.7-4.7,8.3-14,3.6-20.7c-4.7-6.7-14-8.3-20.7-3.6c-6.7,4.7-8.3,14-3.6,20.7
			C470.5,181.4,479.6,183.1,486.4,178.3z M452.4,132.6c4.9-5.8,4.2-14.6-1.7-19.5c-5.8-4.9-14.6-4.2-19.5,1.7
			c-4.9,5.8-4.2,14.6,1.7,19.5C438.8,139.2,447.6,138.4,452.4,132.6z M407.8,97.2c3-6.4,0.3-14-6.2-17s-14-0.3-17,6.2
			c-3,6.4-0.3,14,6.2,17C397.1,106.4,404.8,103.7,407.8,97.2z M355.4,74.9c1.1-6.4-3.2-12.6-9.6-13.8c-6.4-1.1-12.6,3.2-13.8,9.6
			c-1.1,6.4,3.2,12.6,9.6,13.8C348.1,85.7,354.2,81.3,355.4,74.9z M299,67.1c-0.5-6-5.7-10.4-11.7-9.9c-5.9,0.5-10.4,5.8-9.9,11.7
			c0.5,6,5.7,10.4,11.7,9.9C295.1,78.4,299.5,73.1,299,67.1z M242.6,74.4c-1.9-5.1-7.5-7.8-12.6-5.9c-5.1,1.9-7.8,7.5-5.9,12.6
			s7.5,7.8,12.6,5.9C241.7,85.2,244.4,79.6,242.6,74.4z M190.1,96.3c-2.8-4.1-8.3-5-12.4-2.2c-4.1,2.8-5,8.3-2.2,12.4
			c2.8,4.1,8.3,5,12.4,2.2C191.8,105.9,192.9,100.3,190.1,96.3z M145.1,131.1c-3.4-2.8-8.3-2.4-11.1,1c-2.8,3.4-2.4,8.3,1,11.1
			c3.4,2.8,8.3,2.4,11.1-1C148.9,138.9,148.5,134,145.1,131.1z M147.8,435.2c-2.1,2.5-1.9,6.3,0.6,8.4c2.5,2.1,6.3,1.9,8.4-0.6
			c2.1-2.5,1.9-6.3-0.6-8.4C153.6,432.4,149.9,432.7,147.8,435.2z M190.6,467.9c-1.9,4-0.2,8.7,3.7,10.5c4,1.9,8.7,0.2,10.5-3.7
			c1.9-4,0.2-8.7-3.7-10.5C197.1,462.3,192.5,464,190.6,467.9z M241.2,489c-0.9,4.9,2.3,9.4,7.2,10.3c4.9,0.9,9.4-2.3,10.3-7.2
			c0.9-4.9-2.3-9.4-7.2-10.3C246.8,481,242.1,484.2,241.2,489z M293.7,496.8c0.5,6.5,6.2,11.4,12.7,11c6.5-0.5,11.4-6.2,11-12.7
			c-0.5-6.5-6.2-11.4-12.7-11C298,484.6,293.1,490.3,293.7,496.8z M348.3,491c2.4,6.7,9.7,10.2,16.3,7.9c6.7-2.4,10.2-9.7,7.9-16.3
			c-2.4-6.7-9.7-10.2-16.3-7.9C349.5,477,345.9,484.3,348.3,491z M399.7,471.4c4.3,6.3,12.9,7.9,19.3,3.6c6.3-4.3,7.9-12.9,3.6-19.3
			c-4.3-6.3-12.9-7.9-19.3-3.6C397.1,456.5,395.4,465.1,399.7,471.4z M444.5,439.4c6.2,5.3,15.5,4.7,20.9-1.6
			c5.3-6.2,4.7-15.5-1.6-20.9c-6.2-5.3-15.5-4.7-20.9,1.6C437.6,424.7,438.3,434,444.5,439.4z M479.6,397.3
			c7.9,3.9,17.5,0.5,21.4-7.4s0.5-17.5-7.4-21.4s-17.5-0.5-21.4,7.4C468.3,383.9,471.7,393.4,479.6,397.3z"/>
		
			<linearGradient id="SVGID_2_" gradientUnits="userSpaceOnUse" x1="181.0265" y1="227.2715" x2="480.9369" y2="227.2715" gradientTransform="matrix(1 0 0 -1 0 565.91)">
			<stop  offset="0" style="stop-color:#FFCC63"/>
			<stop  offset="1" style="stop-color:#F7941E"/>
		</linearGradient>
		<path class="st2" d="M448.2,314.7c1.4-8.4,9.4-14,17.8-12.6s14,9.4,12.6,17.8c-1.4,8.4-9.4,14-17.8,12.6
			C452.4,331.2,446.7,323.1,448.2,314.7z M468.2,287.7c7.7-0.7,13.3-7.4,12.6-15.1c-0.7-7.7-7.4-13.3-15.1-12.6
			c-7.7,0.7-13.3,7.4-12.6,15.1C453.8,282.8,460.6,288.4,468.2,287.7z M463.5,242.7c6.5-2.4,9.8-9.5,7.4-16.1
			c-2.4-6.5-9.5-9.8-16.1-7.4c-6.5,2.4-9.8,9.5-7.4,16.1C449.8,241.7,456.9,245.1,463.5,242.7z M182.1,402c-1.7,1.9-1.4,4.9,0.5,6.5
			c1.9,1.7,4.9,1.4,6.5-0.5c1.7-1.9,1.4-4.9-0.5-6.5C186.7,399.9,183.8,400,182.1,402z M215.7,427.6c-1.5,3.1-0.2,6.8,2.9,8.2
			c3.1,1.5,6.8,0.2,8.2-2.9c1.5-3.1,0.2-6.8-2.9-8.2C220.8,423.2,217.2,424.5,215.7,427.6z M255.3,444.2c-0.7,3.8,1.8,7.4,5.6,8.1
			c3.8,0.7,7.4-1.8,8.1-5.6s-1.8-7.4-5.6-8.1C259.7,437.9,256,440.4,255.3,444.2z M296.3,450.3c0.4,5.1,4.9,8.9,10,8.6
			c5.1-0.4,8.9-4.9,8.6-10c-0.4-5.1-4.9-8.9-10-8.6C299.8,440.7,296,445.2,296.3,450.3z M339.1,445.7c1.9,5.2,7.6,8,12.8,6.2
			c5.2-1.9,8-7.6,6.2-12.8c-1.9-5.2-7.6-8-12.8-6.2C340,434.7,337.3,440.5,339.1,445.7z M379.4,430.3c3.4,4.9,10.1,6.2,15,2.8
			c4.9-3.4,6.2-10.1,2.8-15c-3.4-4.9-10.1-6.2-15-2.8C377.3,418.7,376,425.4,379.4,430.3z M414.5,405.3c4.9,4.2,12.2,3.6,16.3-1.2
			s3.6-12.2-1.2-16.3c-4.9-4.2-12.2-3.6-16.3,1.2C409.1,393.9,409.6,401.1,414.5,405.3z M441.9,372.3c6.3,3,13.7,0.4,16.7-5.8
			c3-6.3,0.4-13.7-5.8-16.7c-6.3-3-13.7-0.4-16.7,5.8C433.1,361.8,435.8,369.3,441.9,372.3z"/>
		
			<linearGradient id="SVGID_3_" gradientUnits="userSpaceOnUse" x1="5118.5835" y1="-3671.6997" x2="5395.0806" y2="-3671.6997" gradientTransform="matrix(0.3819 0.9242 0.9242 -0.3819 1723.4877 -5990.438)">
			<stop  offset="0" style="stop-color:#FFCC63"/>
			<stop  offset="1" style="stop-color:#F7941E"/>
		</linearGradient>
		<path class="st3" d="M325.5,396.7c6.6-1.5,13.2,2.6,14.7,9.3c1.5,6.6-2.6,13.2-9.3,14.7c-6.6,1.5-13.2-2.6-14.7-9.3
			C314.8,404.7,318.9,398.1,325.5,396.7z M351.5,403.1c2.8,5.4,9.5,7.5,14.9,4.7s7.5-9.5,4.7-14.9s-9.5-7.5-14.9-4.7
			C350.8,391,348.7,397.7,351.5,403.1z M383.1,386c3.7,4.1,10,4.3,14,0.6c4.1-3.7,4.3-10,0.6-14c-3.7-4.1-10-4.3-14-0.6
			C379.7,375.7,379.4,381.9,383.1,386z M408.8,361.4c4.3,2.7,10,1.5,12.7-2.8c2.7-4.3,1.5-10-2.8-12.7c-4.3-2.7-10-1.5-12.7,2.8
			C403.3,353,404.6,358.7,408.8,361.4z M427.1,331.1c4.5,1.4,9.4-1.1,10.8-5.7c1.4-4.5-1.1-9.4-5.7-10.8c-4.5-1.4-9.4,1.1-10.8,5.7
			C420.1,324.8,422.6,329.6,427.1,331.1z M436.8,297c4.4,0.2,8.1-3.2,8.3-7.6c0.2-4.4-3.2-8.1-7.6-8.3c-4.4-0.2-8.1,3.2-8.3,7.6
			C429,293,432.4,296.7,436.8,297z M437.2,261.5c4-0.9,6.5-4.8,5.7-8.8c-0.9-4-4.8-6.5-8.8-5.7c-4,0.9-6.5,4.8-5.7,8.8
			C429.3,259.9,433.2,262.4,437.2,261.5z M428.2,227.2c3.4-1.7,4.6-5.8,2.9-9.1c-1.7-3.4-5.8-4.6-9.1-2.9c-3.4,1.7-4.6,5.8-2.9,9.1
			C420.8,227.7,425,229,428.2,227.2z M410.7,196.6c2.5-2.3,2.7-6.2,0.4-8.7s-6.2-2.7-8.7-0.4c-2.5,2.3-2.7,6.2-0.4,8.7
			C404.2,198.6,408.1,198.8,410.7,196.6z M385.6,171.5c1.7-2.6,0.9-6-1.7-7.7c-2.6-1.7-6-0.9-7.7,1.7c-1.7,2.6-0.9,6,1.7,7.7
			C380.6,174.9,384,174.1,385.6,171.5z M355,154c0.8-2.6-0.6-5.4-3.2-6.2c-2.6-0.8-5.4,0.6-6.2,3.2c-0.8,2.6,0.6,5.4,3.2,6.2
			S354.1,156.6,355,154z M320.1,145.1c0.1-2-1.5-3.8-3.5-3.9c-2-0.1-3.8,1.5-3.9,3.5c-0.1,2,1.5,3.8,3.5,3.9
			C318.2,148.7,320,147.1,320.1,145.1z M284.1,145.8c-0.3-1.3-1.6-2.2-2.9-1.9c-1.3,0.3-2.2,1.6-1.9,2.9c0.3,1.3,1.6,2.2,2.9,1.9
			C283.6,148.5,284.5,147.1,284.1,145.8z M281.4,409.6c-0.4,5.5,3.9,10.2,9.4,10.5c5.5,0.4,10.2-3.9,10.5-9.4
			c0.4-5.5-3.9-10.2-9.4-10.5C286.4,399.9,281.7,404.1,281.4,409.6z"/>
	</g>
	<g>
		<path class="st4" d="M114.3,230h-15l-5.2,19.4H60.3l7-26.1l28.4-22.4h37.1l18.7,22.4l-10,37.2l-25.2,16.8l16.2,16.4L122,333.1
			l-29.5,22.4H54.3l-16.4-22.4l7.4-27.6h33.8l-5.6,20.8h15.1l9.3-34.4H78.5l7.9-29.1h19.4L114.3,230z"/>
		<path class="st4" d="M216.8,230h-15.7l-9,33.6h27.8l17,20.3L223.7,333l-29.3,22.4h-38.2L138.5,333l29.4-109.9l29.3-22.4h38.2
			l17.7,22.4l-7.2,26.9h-34.5L216.8,230z M200.1,292.7h-15.7l-9,33.6h15.7L200.1,292.7z"/>
		<path class="st4" d="M299.7,288.9l-23.6-0.4l-18.9-22.3l17.6-65.4H349l-7.9,29.1H301l-7.6,28.3l26.8,0.9l17.1,21.4l-14.1,52.7
			l-28.9,22.4h-39.1l-17.3-22.4l7.9-29.8h35.9l-6.2,23h14L299.7,288.9z"/>
	</g>
	
		<linearGradient id="SVGID_4_" gradientUnits="userSpaceOnUse" x1="208.4328" y1="317.4928" x2="233.7004" y2="377.1675" gradientTransform="matrix(1 0 0 -1 0 565.91)">
		<stop  offset="0" style="stop-color:#FFFFFF"/>
		<stop  offset="1" style="stop-color:#FFFFFF;stop-opacity:0.2"/>
	</linearGradient>
	<path class="st5" d="M132.8,200.7H95.7l-23.2,18.4c21.5,3.4,47.6,8.4,75.9,16.1l3.2-11.9L132.8,200.7z M216.8,230l-5.4,20.2H246
		l7.2-26.9l-17.7-22.4h-38.2L168,223.2l-4.3,16.2c10.5,3.1,21.3,6.6,32.1,10.5l5.4-20L216.8,230L216.8,230z M320.2,259l-26.8-0.9
		l7.6-28.3h40.2l7.9-29.1h-74.3l-17.7,65.4l14.8,17.4c2.9,1.6,5.9,3.3,8.8,4.9l18.8,0.4l-2.5,9.4c10.2,6.4,20.1,13.2,29.9,20.4
		l10.2-38.2L320.2,259z"/>
</g>
</svg>
